<svg xmlns="http://www.w3.org/2000/svg" xmlns:xlink="http://www.w3.org/1999/xlink" width="500" zoomAndPan="magnify" viewBox="0 0 375 374.999991" height="500" preserveAspectRatio="xMidYMid meet" version="1.0"><defs><g/><clipPath id="2429caedaf"><path d="M 147 136.925781 L 227.964844 136.925781 L 227.964844 170.675781 L 147 170.675781 Z M 147 136.925781 " clip-rule="nonzero"/></clipPath></defs><rect x="-37.5" width="450" fill="#ffffff" y="-37.499999" height="449.999989" fill-opacity="1"/><rect x="-37.5" width="450" fill="#ffffff" y="-37.499999" height="449.999989" fill-opacity="1"/><rect x="-37.5" width="450" fill="#ffffff" y="-37.499999" height="449.999989" fill-opacity="1"/><g clip-path="url(#2429caedaf)"><path fill="#d20600" d="M 159 148.105469 C 159.289062 148.542969 159.683594 148.90625 160.144531 149.15625 C 160.589844 149.398438 161.097656 149.535156 161.636719 149.535156 L 177.308594 149.535156 L 177.308594 148.410156 L 166.917969 148.410156 L 166.917969 146.917969 L 177.308594 146.917969 L 177.308594 142.234375 C 175.214844 141.941406 173.183594 141.566406 171.222656 141.109375 L 171.554688 139.660156 C 174.035156 140.238281 176.640625 140.6875 179.335938 140.988281 C 180.289062 141.09375 181.25 141.179688 182.222656 141.25 L 182.222656 139.597656 C 181.980469 139.515625 181.75 139.410156 181.527344 139.289062 C 180.851562 138.921875 180.273438 138.390625 179.851562 137.75 L 181.082031 136.925781 C 181.371094 137.367188 181.765625 137.730469 182.226562 137.980469 C 182.667969 138.21875 183.175781 138.355469 183.714844 138.355469 L 191.203125 138.355469 C 191.742188 138.355469 192.25 138.21875 192.691406 137.980469 C 193.15625 137.730469 193.550781 137.367188 193.839844 136.925781 L 195.070312 137.75 C 194.648438 138.390625 194.070312 138.921875 193.394531 139.289062 C 193.171875 139.410156 192.9375 139.511719 192.699219 139.597656 L 192.699219 141.25 C 193.675781 141.183594 194.640625 141.09375 195.589844 140.988281 C 198.285156 140.6875 200.886719 140.238281 203.371094 139.664062 L 203.699219 141.113281 C 201.738281 141.570312 199.707031 141.945312 197.613281 142.234375 L 197.613281 146.917969 L 208.003906 146.917969 L 208.003906 148.410156 L 197.613281 148.410156 L 197.613281 149.535156 L 213.285156 149.535156 C 213.824219 149.535156 214.332031 149.398438 214.777344 149.15625 C 215.238281 148.90625 215.632812 148.542969 215.921875 148.105469 L 217.152344 148.925781 C 216.730469 149.566406 216.152344 150.101562 215.476562 150.46875 C 214.820312 150.820312 214.074219 151.023438 213.285156 151.023438 L 210.441406 151.023438 L 210.441406 153.054688 L 219.46875 153.054688 L 219.46875 154.542969 L 210.441406 154.542969 L 210.441406 155.613281 L 222.828125 155.613281 C 223.613281 155.613281 224.351562 155.414062 224.996094 155.066406 C 225.671875 154.699219 226.246094 154.171875 226.664062 153.53125 L 227.898438 154.355469 C 227.339844 155.195312 226.582031 155.894531 225.695312 156.375 C 224.839844 156.839844 223.863281 157.105469 222.828125 157.105469 L 222.382812 157.105469 L 222.382812 169.1875 L 227.0625 169.1875 L 227.0625 170.679688 L 147.863281 170.679688 L 147.863281 169.1875 L 152.539062 169.1875 L 152.539062 157.105469 L 152.09375 157.105469 C 151.058594 157.105469 150.082031 156.839844 149.226562 156.375 C 148.335938 155.894531 147.582031 155.195312 147.023438 154.355469 L 148.257812 153.53125 C 148.679688 154.171875 149.25 154.699219 149.925781 155.066406 C 150.570312 155.414062 151.308594 155.613281 152.09375 155.613281 L 164.480469 155.613281 L 164.480469 154.542969 L 155.453125 154.542969 L 155.453125 153.054688 L 164.480469 153.054688 L 164.480469 151.023438 L 161.636719 151.023438 C 160.847656 151.023438 160.101562 150.820312 159.445312 150.46875 C 158.769531 150.101562 158.191406 149.566406 157.769531 148.925781 Z M 214.492188 164.632812 L 216.867188 164.632812 L 216.867188 162.121094 C 216.867188 161.789062 216.734375 161.492188 216.519531 161.273438 C 216.304688 161.058594 216.007812 160.921875 215.679688 160.921875 C 215.351562 160.921875 215.054688 161.058594 214.839844 161.273438 C 214.625 161.492188 214.492188 161.789062 214.492188 162.121094 Z M 217.609375 166.125 L 213.011719 166.125 L 213.011719 162.121094 C 213.011719 161.378906 213.3125 160.707031 213.792969 160.222656 C 214.277344 159.734375 214.945312 159.433594 215.679688 159.433594 C 216.414062 159.433594 217.082031 159.734375 217.566406 160.222656 C 218.046875 160.707031 218.347656 161.378906 218.347656 162.121094 L 218.347656 166.125 Z M 183.703125 141.339844 C 184.941406 141.402344 186.199219 141.433594 187.46875 141.433594 C 188.734375 141.433594 189.984375 141.402344 191.21875 141.339844 L 191.21875 139.847656 L 183.703125 139.847656 Z M 200.261719 157.679688 L 206.617188 157.679688 L 206.617188 159.171875 L 200.261719 159.171875 Z M 200.261719 154.859375 L 206.617188 154.859375 L 206.617188 156.347656 L 200.261719 156.347656 Z M 168.300781 157.679688 L 174.65625 157.679688 L 174.65625 159.171875 L 168.300781 159.171875 Z M 168.300781 154.859375 L 174.65625 154.859375 L 174.65625 156.347656 L 168.300781 156.347656 Z M 182.371094 152.15625 L 192.550781 152.15625 L 192.550781 153.648438 L 182.371094 153.648438 Z M 182.371094 148.402344 L 192.550781 148.402344 L 192.550781 149.890625 L 182.371094 149.890625 Z M 199.515625 169.1875 L 199.515625 164.671875 C 199.515625 163.601562 199.953125 162.628906 200.652344 161.925781 C 201.351562 161.21875 202.316406 160.78125 203.382812 160.78125 C 204.445312 160.78125 205.410156 161.21875 206.113281 161.925781 C 206.8125 162.628906 207.246094 163.601562 207.246094 164.671875 L 207.246094 169.1875 L 208.960938 169.1875 L 208.960938 151.023438 L 197.613281 151.023438 L 197.613281 169.1875 Z M 205.765625 169.1875 L 205.765625 164.671875 C 205.765625 164.011719 205.5 163.414062 205.066406 162.976562 C 204.632812 162.542969 204.035156 162.269531 203.382812 162.269531 C 202.726562 162.269531 202.128906 162.542969 201.695312 162.976562 C 201.265625 163.414062 200.996094 164.011719 200.996094 164.671875 L 200.996094 169.1875 Z M 158.019531 164.632812 L 160.394531 164.632812 L 160.394531 162.121094 C 160.394531 161.789062 160.261719 161.492188 160.046875 161.273438 C 159.832031 161.058594 159.535156 160.921875 159.207031 160.921875 C 158.882812 160.921875 158.582031 161.058594 158.367188 161.273438 C 158.152344 161.492188 158.019531 161.789062 158.019531 162.121094 Z M 161.136719 166.125 L 156.539062 166.125 L 156.539062 162.121094 C 156.539062 161.378906 156.839844 160.707031 157.320312 160.222656 C 157.804688 159.734375 158.472656 159.433594 159.207031 159.433594 C 159.941406 159.433594 160.609375 159.734375 161.09375 160.222656 C 161.578125 160.707031 161.875 161.378906 161.875 162.121094 L 161.875 166.125 Z M 167.671875 169.1875 L 167.671875 164.671875 C 167.671875 163.601562 168.105469 162.628906 168.808594 161.925781 C 169.507812 161.21875 170.472656 160.78125 171.539062 160.78125 C 172.601562 160.78125 173.566406 161.21875 174.265625 161.925781 C 174.96875 162.628906 175.402344 163.601562 175.402344 164.671875 L 175.402344 169.1875 L 177.308594 169.1875 L 177.308594 151.023438 L 165.960938 151.023438 L 165.960938 169.1875 Z M 173.921875 169.1875 L 173.921875 164.671875 C 173.921875 164.011719 173.65625 163.414062 173.222656 162.976562 C 172.789062 162.542969 172.191406 162.269531 171.539062 162.269531 C 170.882812 162.269531 170.285156 162.542969 169.851562 162.976562 C 169.421875 163.414062 169.152344 164.011719 169.152344 164.671875 L 169.152344 169.1875 Z M 178.789062 142.421875 L 178.789062 169.1875 L 181.742188 169.1875 L 181.742188 161.582031 C 181.742188 159.996094 182.382812 158.554688 183.421875 157.511719 C 184.457031 156.46875 185.886719 155.820312 187.460938 155.820312 C 189.035156 155.820312 190.464844 156.46875 191.5 157.511719 C 192.539062 158.554688 193.183594 159.996094 193.183594 161.582031 L 193.183594 169.1875 L 196.132812 169.1875 L 196.132812 142.421875 C 196.007812 142.4375 195.878906 142.453125 195.753906 142.46875 C 193.0625 142.765625 190.292969 142.921875 187.46875 142.921875 C 184.640625 142.921875 181.867188 142.765625 179.175781 142.464844 C 179.046875 142.453125 178.917969 142.4375 178.789062 142.421875 Z M 183.21875 169.1875 L 191.703125 169.1875 L 191.703125 161.582031 C 191.703125 160.40625 191.222656 159.339844 190.457031 158.566406 C 189.6875 157.792969 188.625 157.308594 187.460938 157.308594 C 186.296875 157.308594 185.234375 157.792969 184.464844 158.566406 C 183.699219 159.339844 183.21875 160.40625 183.21875 161.582031 Z M 210.441406 157.105469 L 210.441406 169.1875 L 220.902344 169.1875 L 220.902344 157.105469 Z M 164.480469 169.1875 L 164.480469 157.105469 L 154.019531 157.105469 L 154.019531 169.1875 L 164.480469 169.1875 " fill-opacity="1" fill-rule="nonzero"/></g><g fill="#000000" fill-opacity="1"><g transform="translate(89.07731, 196.95327)"><g><path d="M 5.875 -14.625 L 0.109375 -14.625 L 0.109375 -18.03125 L 15.8125 -18.03125 L 15.8125 -14.625 L 10.046875 -14.625 L 10.046875 0 L 5.875 0 Z M 5.875 -14.625 "/></g></g></g><g fill="#000000" fill-opacity="1"><g transform="translate(121.56726, 196.95327)"><g><path d="M 16.09375 -3.34375 L 16.09375 0 L 2.140625 0 L 2.140625 -18.03125 L 15.765625 -18.03125 L 15.765625 -14.671875 L 6.28125 -14.671875 L 6.28125 -10.765625 L 14.65625 -10.765625 L 14.65625 -7.515625 L 6.28125 -7.515625 L 6.28125 -3.34375 Z M 16.09375 -3.34375 "/></g></g></g><g fill="#000000" fill-opacity="1"><g transform="translate(155.421718, 196.95327)"><g><path d="M 18.546875 0 L 18.515625 -10.8125 L 13.203125 -1.90625 L 11.328125 -1.90625 L 6.046875 -10.578125 L 6.046875 0 L 2.140625 0 L 2.140625 -18.03125 L 5.59375 -18.03125 L 12.328125 -6.828125 L 18.984375 -18.03125 L 22.40625 -18.03125 L 22.453125 0 Z M 18.546875 0 "/></g></g></g><g fill="#000000" fill-opacity="1"><g transform="translate(196.587722, 196.95327)"><g><path d="M 9.9375 -18.03125 C 11.53125 -18.03125 12.914062 -17.757812 14.09375 -17.21875 C 15.269531 -16.6875 16.175781 -15.929688 16.8125 -14.953125 C 17.445312 -13.984375 17.765625 -12.828125 17.765625 -11.484375 C 17.765625 -10.160156 17.445312 -9.003906 16.8125 -8.015625 C 16.175781 -7.035156 15.269531 -6.28125 14.09375 -5.75 C 12.914062 -5.226562 11.53125 -4.96875 9.9375 -4.96875 L 6.3125 -4.96875 L 6.3125 0 L 2.140625 0 L 2.140625 -18.03125 Z M 9.703125 -8.375 C 10.960938 -8.375 11.914062 -8.640625 12.5625 -9.171875 C 13.21875 -9.710938 13.546875 -10.484375 13.546875 -11.484375 C 13.546875 -12.492188 13.21875 -13.269531 12.5625 -13.8125 C 11.914062 -14.351562 10.960938 -14.625 9.703125 -14.625 L 6.3125 -14.625 L 6.3125 -8.375 Z M 9.703125 -8.375 "/></g></g></g><g fill="#000000" fill-opacity="1"><g transform="translate(232.012597, 196.95327)"><g><path d="M 2.140625 -18.03125 L 6.3125 -18.03125 L 6.3125 -3.40625 L 15.34375 -3.40625 L 15.34375 0 L 2.140625 0 Z M 2.140625 -18.03125 "/></g></g></g><g fill="#000000" fill-opacity="1"><g transform="translate(264.142115, 196.95327)"><g><path d="M 10.859375 0.3125 C 8.992188 0.3125 7.304688 -0.0859375 5.796875 -0.890625 C 4.296875 -1.703125 3.117188 -2.816406 2.265625 -4.234375 C 1.421875 -5.648438 1 -7.242188 1 -9.015625 C 1 -10.785156 1.421875 -12.375 2.265625 -13.78125 C 3.117188 -15.195312 4.296875 -16.304688 5.796875 -17.109375 C 7.304688 -17.921875 8.992188 -18.328125 10.859375 -18.328125 C 12.734375 -18.328125 14.414062 -17.921875 15.90625 -17.109375 C 17.40625 -16.304688 18.582031 -15.195312 19.4375 -13.78125 C 20.300781 -12.375 20.734375 -10.785156 20.734375 -9.015625 C 20.734375 -7.242188 20.300781 -5.648438 19.4375 -4.234375 C 18.582031 -2.816406 17.40625 -1.703125 15.90625 -0.890625 C 14.414062 -0.0859375 12.734375 0.3125 10.859375 0.3125 Z M 10.859375 -3.25 C 11.929688 -3.25 12.894531 -3.492188 13.75 -3.984375 C 14.601562 -4.472656 15.273438 -5.15625 15.765625 -6.03125 C 16.253906 -6.90625 16.5 -7.898438 16.5 -9.015625 C 16.5 -10.128906 16.253906 -11.125 15.765625 -12 C 15.273438 -12.875 14.601562 -13.554688 13.75 -14.046875 C 12.894531 -14.535156 11.929688 -14.78125 10.859375 -14.78125 C 9.796875 -14.78125 8.832031 -14.535156 7.96875 -14.046875 C 7.113281 -13.554688 6.441406 -12.875 5.953125 -12 C 5.472656 -11.125 5.234375 -10.128906 5.234375 -9.015625 C 5.234375 -7.898438 5.472656 -6.90625 5.953125 -6.03125 C 6.441406 -5.15625 7.113281 -4.472656 7.96875 -3.984375 C 8.832031 -3.492188 9.796875 -3.25 10.859375 -3.25 Z M 10.859375 -3.25 "/></g></g></g><g fill="#ff473f" fill-opacity="1"><g transform="translate(118.746006, 219.135888)"><g><path d="M 8.453125 0 L 8.453125 -4.9375 L 6.03125 -0.875 L 5.171875 -0.875 L 2.765625 -4.828125 L 2.765625 0 L 0.96875 0 L 0.96875 -8.21875 L 2.546875 -8.21875 L 5.625 -3.109375 L 8.65625 -8.21875 L 10.21875 -8.21875 L 10.25 0 Z M 8.453125 0 "/></g></g></g><g fill="#ff473f" fill-opacity="1"><g transform="translate(136.418011, 219.135888)"><g><path d="M 7.34375 -1.53125 L 7.34375 0 L 0.96875 0 L 0.96875 -8.21875 L 7.1875 -8.21875 L 7.1875 -6.703125 L 2.859375 -6.703125 L 2.859375 -4.90625 L 6.6875 -4.90625 L 6.6875 -3.4375 L 2.859375 -3.4375 L 2.859375 -1.53125 Z M 7.34375 -1.53125 "/></g></g></g><g fill="#ff473f" fill-opacity="1"><g transform="translate(150.75079, 219.135888)"><g><path d="M 0.96875 -8.21875 L 4.71875 -8.21875 C 5.601562 -8.21875 6.390625 -8.046875 7.078125 -7.703125 C 7.765625 -7.367188 8.296875 -6.890625 8.671875 -6.265625 C 9.054688 -5.648438 9.25 -4.929688 9.25 -4.109375 C 9.25 -3.285156 9.054688 -2.5625 8.671875 -1.9375 C 8.296875 -1.320312 7.765625 -0.84375 7.078125 -0.5 C 6.390625 -0.164062 5.601562 0 4.71875 0 L 0.96875 0 Z M 4.625 -1.5625 C 5.4375 -1.5625 6.085938 -1.789062 6.578125 -2.25 C 7.066406 -2.707031 7.3125 -3.328125 7.3125 -4.109375 C 7.3125 -4.890625 7.066406 -5.507812 6.578125 -5.96875 C 6.085938 -6.425781 5.4375 -6.65625 4.625 -6.65625 L 2.875 -6.65625 L 2.875 -1.5625 Z M 4.625 -1.5625 "/></g></g></g><g fill="#ff473f" fill-opacity="1"><g transform="translate(166.906024, 219.135888)"><g><path d="M 0.96875 -8.21875 L 2.875 -8.21875 L 2.875 0 L 0.96875 0 Z M 0.96875 -8.21875 "/></g></g></g><g fill="#ff473f" fill-opacity="1"><g transform="translate(177.205863, 219.135888)"><g><path d="M 2.671875 -6.671875 L 0.046875 -6.671875 L 0.046875 -8.21875 L 7.21875 -8.21875 L 7.21875 -6.671875 L 4.578125 -6.671875 L 4.578125 0 L 2.671875 0 Z M 2.671875 -6.671875 "/></g></g></g><g fill="#ff473f" fill-opacity="1"><g transform="translate(190.915468, 219.135888)"><g><path d="M 6.390625 -1.765625 L 2.578125 -1.765625 L 1.84375 0 L -0.109375 0 L 3.5625 -8.21875 L 5.4375 -8.21875 L 9.125 0 L 7.125 0 Z M 5.796875 -3.203125 L 4.484375 -6.359375 L 3.1875 -3.203125 Z M 5.796875 -3.203125 "/></g></g></g><g fill="#ff473f" fill-opacity="1"><g transform="translate(206.365239, 219.135888)"><g><path d="M 2.671875 -6.671875 L 0.046875 -6.671875 L 0.046875 -8.21875 L 7.21875 -8.21875 L 7.21875 -6.671875 L 4.578125 -6.671875 L 4.578125 0 L 2.671875 0 Z M 2.671875 -6.671875 "/></g></g></g><g fill="#ff473f" fill-opacity="1"><g transform="translate(220.074844, 219.135888)"><g><path d="M 0.96875 -8.21875 L 2.875 -8.21875 L 2.875 0 L 0.96875 0 Z M 0.96875 -8.21875 "/></g></g></g><g fill="#ff473f" fill-opacity="1"><g transform="translate(230.374686, 219.135888)"><g><path d="M 4.953125 0.140625 C 4.097656 0.140625 3.328125 -0.0390625 2.640625 -0.40625 C 1.960938 -0.78125 1.425781 -1.289062 1.03125 -1.9375 C 0.644531 -2.582031 0.453125 -3.304688 0.453125 -4.109375 C 0.453125 -4.921875 0.644531 -5.648438 1.03125 -6.296875 C 1.425781 -6.941406 1.960938 -7.445312 2.640625 -7.8125 C 3.328125 -8.175781 4.097656 -8.359375 4.953125 -8.359375 C 5.804688 -8.359375 6.570312 -8.175781 7.25 -7.8125 C 7.9375 -7.445312 8.472656 -6.941406 8.859375 -6.296875 C 9.253906 -5.648438 9.453125 -4.921875 9.453125 -4.109375 C 9.453125 -3.304688 9.253906 -2.582031 8.859375 -1.9375 C 8.472656 -1.289062 7.9375 -0.78125 7.25 -0.40625 C 6.570312 -0.0390625 5.804688 0.140625 4.953125 0.140625 Z M 4.953125 -1.484375 C 5.441406 -1.484375 5.878906 -1.59375 6.265625 -1.8125 C 6.660156 -2.039062 6.96875 -2.351562 7.1875 -2.75 C 7.414062 -3.144531 7.53125 -3.597656 7.53125 -4.109375 C 7.53125 -4.617188 7.414062 -5.070312 7.1875 -5.46875 C 6.96875 -5.875 6.660156 -6.1875 6.265625 -6.40625 C 5.878906 -6.632812 5.441406 -6.75 4.953125 -6.75 C 4.472656 -6.75 4.035156 -6.632812 3.640625 -6.40625 C 3.253906 -6.1875 2.945312 -5.875 2.71875 -5.46875 C 2.5 -5.070312 2.390625 -4.617188 2.390625 -4.109375 C 2.390625 -3.597656 2.5 -3.144531 2.71875 -2.75 C 2.945312 -2.351562 3.253906 -2.039062 3.640625 -1.8125 C 4.035156 -1.59375 4.472656 -1.484375 4.953125 -1.484375 Z M 4.953125 -1.484375 "/></g></g></g><g fill="#ff473f" fill-opacity="1"><g transform="translate(246.741567, 219.135888)"><g><path d="M 8.515625 -8.21875 L 8.515625 0 L 6.953125 0 L 2.859375 -5 L 2.859375 0 L 0.96875 0 L 0.96875 -8.21875 L 2.546875 -8.21875 L 6.640625 -3.234375 L 6.640625 -8.21875 Z M 8.515625 -8.21875 "/></g></g></g><g fill="#000000" fill-opacity="1"><g transform="translate(99.4686, 165.172624)"><g><path d="M 6.53125 -1.359375 L 6.53125 0 L 0.875 0 L 0.875 -7.3125 L 6.390625 -7.3125 L 6.390625 -5.953125 L 2.546875 -5.953125 L 2.546875 -4.375 L 5.953125 -4.375 L 5.953125 -3.046875 L 2.546875 -3.046875 L 2.546875 -1.359375 Z M 6.53125 -1.359375 "/></g></g></g><g fill="#000000" fill-opacity="1"><g transform="translate(108.152623, 165.172624)"><g><path d="M 3.265625 0.125 C 2.691406 0.125 2.132812 0.046875 1.59375 -0.109375 C 1.050781 -0.265625 0.617188 -0.46875 0.296875 -0.71875 L 0.875 -2 C 1.1875 -1.769531 1.554688 -1.582031 1.984375 -1.4375 C 2.421875 -1.300781 2.851562 -1.234375 3.28125 -1.234375 C 3.757812 -1.234375 4.113281 -1.300781 4.34375 -1.4375 C 4.570312 -1.582031 4.6875 -1.773438 4.6875 -2.015625 C 4.6875 -2.191406 4.617188 -2.335938 4.484375 -2.453125 C 4.347656 -2.566406 4.171875 -2.65625 3.953125 -2.71875 C 3.742188 -2.789062 3.460938 -2.867188 3.109375 -2.953125 C 2.546875 -3.085938 2.085938 -3.21875 1.734375 -3.34375 C 1.378906 -3.476562 1.070312 -3.691406 0.8125 -3.984375 C 0.5625 -4.285156 0.4375 -4.675781 0.4375 -5.15625 C 0.4375 -5.582031 0.550781 -5.96875 0.78125 -6.3125 C 1.007812 -6.664062 1.351562 -6.941406 1.8125 -7.140625 C 2.28125 -7.335938 2.847656 -7.4375 3.515625 -7.4375 C 3.984375 -7.4375 4.441406 -7.378906 4.890625 -7.265625 C 5.335938 -7.160156 5.726562 -7.003906 6.0625 -6.796875 L 5.546875 -5.515625 C 4.867188 -5.890625 4.191406 -6.078125 3.515625 -6.078125 C 3.035156 -6.078125 2.679688 -6 2.453125 -5.84375 C 2.234375 -5.695312 2.125 -5.5 2.125 -5.25 C 2.125 -5 2.253906 -4.8125 2.515625 -4.6875 C 2.773438 -4.5625 3.171875 -4.441406 3.703125 -4.328125 C 4.265625 -4.191406 4.722656 -4.054688 5.078125 -3.921875 C 5.429688 -3.796875 5.734375 -3.585938 5.984375 -3.296875 C 6.242188 -3.015625 6.375 -2.628906 6.375 -2.140625 C 6.375 -1.722656 6.253906 -1.34375 6.015625 -1 C 5.785156 -0.65625 5.4375 -0.378906 4.96875 -0.171875 C 4.507812 0.0234375 3.941406 0.125 3.265625 0.125 Z M 3.265625 0.125 "/></g></g></g><g fill="#000000" fill-opacity="1"><g transform="translate(116.491786, 165.172624)"><g><path d="M 2.390625 -5.9375 L 0.046875 -5.9375 L 0.046875 -7.3125 L 6.421875 -7.3125 L 6.421875 -5.9375 L 4.078125 -5.9375 L 4.078125 0 L 2.390625 0 Z M 2.390625 -5.9375 "/></g></g></g><g fill="#000000" fill-opacity="1"><g transform="translate(124.621943, 165.172624)"><g><path d="M 0.875 -7.3125 L 4.1875 -7.3125 C 4.988281 -7.3125 5.691406 -7.160156 6.296875 -6.859375 C 6.910156 -6.554688 7.382812 -6.128906 7.71875 -5.578125 C 8.0625 -5.023438 8.234375 -4.382812 8.234375 -3.65625 C 8.234375 -2.925781 8.0625 -2.285156 7.71875 -1.734375 C 7.382812 -1.179688 6.910156 -0.753906 6.296875 -0.453125 C 5.691406 -0.148438 4.988281 0 4.1875 0 L 0.875 0 Z M 4.109375 -1.390625 C 4.835938 -1.390625 5.421875 -1.59375 5.859375 -2 C 6.296875 -2.40625 6.515625 -2.957031 6.515625 -3.65625 C 6.515625 -4.351562 6.296875 -4.90625 5.859375 -5.3125 C 5.421875 -5.71875 4.835938 -5.921875 4.109375 -5.921875 L 2.5625 -5.921875 L 2.5625 -1.390625 Z M 4.109375 -1.390625 "/></g></g></g><g fill="#000000" fill-opacity="1"><g transform="translate(242.683186, 165.172624)"><g><path d="M 5.875 -1.375 L 5.875 0 L 0.34375 0 L 0.34375 -1.09375 L 3.171875 -3.765625 C 3.460938 -4.046875 3.660156 -4.289062 3.765625 -4.5 C 3.878906 -4.707031 3.9375 -4.910156 3.9375 -5.109375 C 3.9375 -5.398438 3.832031 -5.625 3.625 -5.78125 C 3.425781 -5.9375 3.140625 -6.015625 2.765625 -6.015625 C 2.441406 -6.015625 2.148438 -5.953125 1.890625 -5.828125 C 1.628906 -5.710938 1.414062 -5.535156 1.25 -5.296875 L 0.015625 -6.078125 C 0.296875 -6.503906 0.6875 -6.835938 1.1875 -7.078125 C 1.6875 -7.316406 2.265625 -7.4375 2.921875 -7.4375 C 3.460938 -7.4375 3.9375 -7.347656 4.34375 -7.171875 C 4.75 -6.992188 5.066406 -6.742188 5.296875 -6.421875 C 5.523438 -6.097656 5.640625 -5.71875 5.640625 -5.28125 C 5.640625 -4.882812 5.550781 -4.507812 5.375 -4.15625 C 5.207031 -3.8125 4.882812 -3.414062 4.40625 -2.96875 L 2.734375 -1.375 Z M 5.875 -1.375 "/></g></g></g><g fill="#000000" fill-opacity="1"><g transform="translate(250.520744, 165.172624)"><g><path d="M 3.546875 0.125 C 2.941406 0.125 2.398438 -0.0234375 1.921875 -0.328125 C 1.453125 -0.628906 1.082031 -1.0625 0.8125 -1.625 C 0.539062 -2.195312 0.40625 -2.875 0.40625 -3.65625 C 0.40625 -4.445312 0.539062 -5.125 0.8125 -5.6875 C 1.082031 -6.257812 1.453125 -6.691406 1.921875 -6.984375 C 2.398438 -7.285156 2.941406 -7.4375 3.546875 -7.4375 C 4.148438 -7.4375 4.6875 -7.285156 5.15625 -6.984375 C 5.632812 -6.691406 6.003906 -6.257812 6.265625 -5.6875 C 6.535156 -5.125 6.671875 -4.445312 6.671875 -3.65625 C 6.671875 -2.875 6.535156 -2.195312 6.265625 -1.625 C 6.003906 -1.0625 5.632812 -0.628906 5.15625 -0.328125 C 4.6875 -0.0234375 4.148438 0.125 3.546875 0.125 Z M 3.546875 -1.3125 C 3.992188 -1.3125 4.34375 -1.5 4.59375 -1.875 C 4.84375 -2.257812 4.96875 -2.851562 4.96875 -3.65625 C 4.96875 -4.457031 4.84375 -5.050781 4.59375 -5.4375 C 4.34375 -5.820312 3.992188 -6.015625 3.546875 -6.015625 C 3.109375 -6.015625 2.757812 -5.820312 2.5 -5.4375 C 2.25 -5.050781 2.125 -4.457031 2.125 -3.65625 C 2.125 -2.851562 2.25 -2.257812 2.5 -1.875 C 2.757812 -1.5 3.109375 -1.3125 3.546875 -1.3125 Z M 3.546875 -1.3125 "/></g></g></g><g fill="#000000" fill-opacity="1"><g transform="translate(259.288361, 165.172624)"><g><path d="M 5.875 -1.375 L 5.875 0 L 0.34375 0 L 0.34375 -1.09375 L 3.171875 -3.765625 C 3.460938 -4.046875 3.660156 -4.289062 3.765625 -4.5 C 3.878906 -4.707031 3.9375 -4.910156 3.9375 -5.109375 C 3.9375 -5.398438 3.832031 -5.625 3.625 -5.78125 C 3.425781 -5.9375 3.140625 -6.015625 2.765625 -6.015625 C 2.441406 -6.015625 2.148438 -5.953125 1.890625 -5.828125 C 1.628906 -5.710938 1.414062 -5.535156 1.25 -5.296875 L 0.015625 -6.078125 C 0.296875 -6.503906 0.6875 -6.835938 1.1875 -7.078125 C 1.6875 -7.316406 2.265625 -7.4375 2.921875 -7.4375 C 3.460938 -7.4375 3.9375 -7.347656 4.34375 -7.171875 C 4.75 -6.992188 5.066406 -6.742188 5.296875 -6.421875 C 5.523438 -6.097656 5.640625 -5.71875 5.640625 -5.28125 C 5.640625 -4.882812 5.550781 -4.507812 5.375 -4.15625 C 5.207031 -3.8125 4.882812 -3.414062 4.40625 -2.96875 L 2.734375 -1.375 Z M 5.875 -1.375 "/></g></g></g><g fill="#000000" fill-opacity="1"><g transform="translate(267.125919, 165.172624)"><g><path d="M 3.546875 0.125 C 2.941406 0.125 2.398438 -0.0234375 1.921875 -0.328125 C 1.453125 -0.628906 1.082031 -1.0625 0.8125 -1.625 C 0.539062 -2.195312 0.40625 -2.875 0.40625 -3.65625 C 0.40625 -4.445312 0.539062 -5.125 0.8125 -5.6875 C 1.082031 -6.257812 1.453125 -6.691406 1.921875 -6.984375 C 2.398438 -7.285156 2.941406 -7.4375 3.546875 -7.4375 C 4.148438 -7.4375 4.6875 -7.285156 5.15625 -6.984375 C 5.632812 -6.691406 6.003906 -6.257812 6.265625 -5.6875 C 6.535156 -5.125 6.671875 -4.445312 6.671875 -3.65625 C 6.671875 -2.875 6.535156 -2.195312 6.265625 -1.625 C 6.003906 -1.0625 5.632812 -0.628906 5.15625 -0.328125 C 4.6875 -0.0234375 4.148438 0.125 3.546875 0.125 Z M 3.546875 -1.3125 C 3.992188 -1.3125 4.34375 -1.5 4.59375 -1.875 C 4.84375 -2.257812 4.96875 -2.851562 4.96875 -3.65625 C 4.96875 -4.457031 4.84375 -5.050781 4.59375 -5.4375 C 4.34375 -5.820312 3.992188 -6.015625 3.546875 -6.015625 C 3.109375 -6.015625 2.757812 -5.820312 2.5 -5.4375 C 2.25 -5.050781 2.125 -4.457031 2.125 -3.65625 C 2.125 -2.851562 2.25 -2.257812 2.5 -1.875 C 2.757812 -1.5 3.109375 -1.3125 3.546875 -1.3125 Z M 3.546875 -1.3125 "/></g></g></g></svg>