<?xml version="1.0" encoding="UTF-8"?><svg id="Layer_1" xmlns="http://www.w3.org/2000/svg" viewBox="0 0 246.79 189.1"><defs><style>.cls-1{fill:#fff;}.cls-2{fill:#dda83f;}</style></defs><g><path class="cls-1" d="M18.07,138.64c-.93-.14-3.37-.19-7.31-.19h-.97v-32.84H3.91c-1.73,0-2.77,.1-3.09,.27-.31,.18-.56,.34-.73,.46l-.08-.04v-7.58l.08-.08c.67,.21,2.44,.31,5.3,.31H23.98c1.75,0,2.79-.09,3.09-.27,.31-.17,.55-.33,.73-.46l.12,.04v7.58l-.12,.12c-.65-.23-2.4-.35-5.26-.35h-4.49v33.04Z"/><path class="cls-1" d="M62.69,131.33c1.21,0,2.06-.12,2.55-.35h.12l-.31,7.47h-22.24v-39.69c.54,.03,1.13,.06,1.78,.08l2.09,.08c1.39,.03,2.88,.04,4.49,.04,4.54,0,9.02-.08,13.46-.23-.21,1.76-.31,4.08-.31,6.96,0,.34,0,.58,.04,.73l-.04,.08c-1.03-.28-2.5-.43-4.41-.43h-9.36v7.54h7.04c2.19,0,3.5-.05,3.95-.15l.08,7.31c-.96-.1-2.19-.15-3.67-.15h-7.39v10.72h12.15Z"/><path class="cls-1" d="M89.78,138.64c-.96-.14-2.79-.19-5.49-.19h-2.36v-39.61c1.26,.08,2.65,.12,4.18,.12s2.6-.08,3.25-.23l9.98,16.94,9.59-16.94c.62,.15,1.82,.23,3.6,.23s3.3-.04,4.56-.12v39.61h-2.36c-2.71,0-4.55,.06-5.49,.19v-26.61l-9.71,17.37-9.75-15.98v25.22Z"/><path class="cls-1" d="M135.4,98.76c2.76-.36,5.58-.54,8.47-.54,5.39,0,9.48,1.27,12.26,3.79,2.8,2.53,4.22,6.31,4.22,11.33,0,4.49-1.54,8.04-4.6,10.64-2.86,2.46-6.56,3.67-11.06,3.67-.52,0-1.08-.02-1.7-.08v10.87h-7.58v-39.69Zm9.36,6.61c-.6,0-1.19,.02-1.78,.04v15.63c.64,.08,1.41,.12,2.32,.12s1.84-.19,2.82-.58c1.01-.39,1.84-.93,2.51-1.62,1.41-1.44,2.13-3.34,2.13-5.69,0-5.26-2.67-7.89-8.01-7.89Z"/><path class="cls-1" d="M180.75,138.44c-2.92,0-4.85,.06-5.8,.19v-39.84c.46,.11,1.44,.15,2.94,.15s3.23-.04,5.22-.12v32.49h6.15c1.78,0,3.21-.06,4.29-.19-.15,4.64-.23,7.06-.23,7.23v.27c-1.93-.14-5.18-.19-9.75-.19h-2.82Z"/><path class="cls-1" d="M212.09,133.76c-1.81-1.72-3.24-3.79-4.29-6.19-1.03-2.42-1.55-5.08-1.55-7.97s.47-5.61,1.43-8.16c.98-2.57,2.37-4.85,4.18-6.81,1.8-1.95,3.98-3.52,6.54-4.68s5.42-1.74,8.59-1.74c5.46,0,10.07,1.72,13.81,5.14,3.99,3.69,6,8.67,6,14.93s-2.07,11.1-6.19,15.13c-2.53,2.46-5.55,4.16-9.05,5.11-1.73,.44-3.74,.66-6.03,.66s-4.66-.46-7.08-1.39c-2.43-.95-4.55-2.29-6.34-4.02Zm2.44-14.54c0,1.84,.29,3.52,.89,5.07,.62,1.55,1.47,2.88,2.55,3.98,2.32,2.32,5.3,3.48,8.94,3.48s6.27-1.1,8.36-3.33c2.14-2.32,3.21-5.47,3.21-9.48,0-3.76-1.03-6.9-3.06-9.44-2.2-2.68-5.2-4.02-9.01-4.02s-6.65,1.37-8.82,4.1c-2.04,2.55-3.06,5.76-3.06,9.63Z"/></g><g><path class="cls-1" d="M49.9,159.14c-1.04,.04-1.78,.16-2.26,.36-.45,.16-.76,.48-.95,.95-.16,.48-.24,1.28-.24,2.38v21.17c0,1.07,.07,1.87,.24,2.38,.19,.48,.51,.8,.95,.95,.48,.16,1.22,.28,2.26,.36v.83c-1.31-.07-3.12-.12-5.41-.12-2.47,0-4.28,.04-5.47,.12v-.83c1.03-.07,1.78-.19,2.26-.36,.48-.15,.79-.48,.95-.95,.15-.51,.24-1.31,.24-2.38v-22.89l-10.29,27.65h-.65l-10.76-27.71v22.54c0,1.11,.07,1.95,.24,2.5,.19,.52,.55,.89,1.07,1.13,.55,.24,1.4,.4,2.56,.48v.83c-1.04-.07-2.48-.12-4.34-.12-1.71,0-3.03,.04-3.98,.12v-.83c.98-.07,1.72-.24,2.2-.48,.51-.24,.85-.62,1.01-1.19,.15-.55,.24-1.37,.24-2.44v-20.75c0-1.1-.09-1.9-.24-2.38-.16-.48-.48-.79-.95-.95-.48-.19-1.23-.31-2.26-.36v-.83c.95,.09,2.27,.12,3.98,.12,1.46,0,2.68-.03,3.63-.12l9.39,24.68,9.16-24.56h2.02c2.29,0,4.1-.03,5.41-.12v.83Z"/><path class="cls-1" d="M72.29,183.4c-.48,1.55-1.43,2.9-2.85,4.04-1.43,1.1-3.14,1.66-5.11,1.66s-3.78-.46-5.23-1.37c-1.47-.95-2.6-2.26-3.39-3.92-.8-1.66-1.19-3.58-1.19-5.77,0-2.45,.39-4.59,1.19-6.42,.79-1.81,1.9-3.23,3.33-4.22,1.46-.98,3.17-1.49,5.11-1.49,2.57,0,4.55,.77,5.95,2.32,1.38,1.55,2.08,3.91,2.08,7.08h-13.38c-.09,.8-.12,1.71-.12,2.74,0,1.87,.3,3.51,.89,4.94,.62,1.4,1.44,2.47,2.44,3.21,1.03,.76,2.1,1.13,3.21,1.13,1.34,0,2.53-.31,3.57-.95,1.07-.67,1.96-1.78,2.68-3.33l.83,.36Zm-8.32-16.65c-1.31,0-2.47,.65-3.45,1.96-.95,1.31-1.55,3.24-1.78,5.77h9.34c.03-2.21-.3-4.06-1.01-5.53-.68-1.46-1.71-2.2-3.09-2.2Z"/><path class="cls-1" d="M95.69,183.87c0,1.31,.24,2.26,.71,2.85s1.31,.89,2.5,.89v.89c-.88-.07-1.75-.12-2.62-.12-1.83,0-3.31,.19-4.46,.59v-3.81c-.52,1.28-1.29,2.24-2.32,2.91-1.04,.67-2.29,1.01-3.75,1.01-2.74,0-4.88-.97-6.42-2.91-1.55-1.98-2.32-4.88-2.32-8.68,0-2.45,.43-4.55,1.31-6.3,.86-1.74,2.04-3.05,3.51-3.92,1.46-.91,3.09-1.37,4.88-1.37,1.07,0,2.04,.22,2.91,.65,.91,.4,1.64,1.04,2.2,1.9v-8.32c0-1.31-.27-2.26-.77-2.85-.48-.59-1.31-.89-2.5-.89v-.89c.91,.09,1.8,.12,2.68,.12,1.78,0,3.27-.19,4.46-.59v28.84Zm-8.68,3.98c1.1,0,2.1-.43,2.97-1.31,.86-.86,1.49-2.08,1.84-3.63v-12.72c-.76-2.17-2.36-3.27-4.82-3.27-1.75,0-3.18,.92-4.28,2.74-1.07,1.78-1.59,4.4-1.55,7.85-.04,3.45,.43,6.05,1.43,7.79,1.03,1.71,2.5,2.56,4.4,2.56Z"/><path class="cls-1" d="M106.77,155.87c.74,0,1.38,.28,1.9,.83,.55,.52,.83,1.16,.83,1.9s-.28,1.35-.83,1.9c-.52,.56-1.16,.83-1.9,.83s-1.41-.27-1.96-.83c-.52-.55-.77-1.19-.77-1.9s.25-1.38,.77-1.9c.55-.55,1.2-.83,1.96-.83Zm2.2,28.66c0,1.19,.24,2.01,.71,2.44,.48,.45,1.32,.65,2.56,.65v.89c-2.62-.12-4.34-.18-5.17-.18s-2.56,.06-5.17,.18v-.89c1.19,0,2.02-.21,2.5-.65,.48-.43,.71-1.25,.71-2.44v-13.38c0-1.31-.24-2.26-.71-2.85s-1.31-.89-2.5-.89v-.89c.91,.09,1.78,.12,2.62,.12,1.81,0,3.3-.19,4.46-.59v18.49Z"/><path class="cls-1" d="M122.09,166.57h6.36v.83h-6.36v16.53c0,1.28,.24,2.2,.71,2.79,.48,.56,1.14,.83,2.02,.83s1.66-.36,2.26-1.07c.62-.71,1.16-1.87,1.61-3.51l.83,.24c-.71,3.92-2.56,5.89-5.53,5.89-.95,0-1.75-.12-2.38-.36-.64-.21-1.19-.55-1.66-1.07-.64-.59-1.07-1.34-1.31-2.26-.24-.91-.36-2.14-.36-3.69v-14.33h-4.1v-.83h4.1v-6.54c1.58-.03,2.85-.24,3.81-.59v7.14Z"/><path class="cls-1" d="M136.92,188.81c-1.78,0-3.12-.43-3.98-1.31-.88-.91-1.31-2.16-1.31-3.75,0-1.31,.33-2.35,1.01-3.15,.71-.83,1.55-1.49,2.5-1.96,.95-.51,2.21-1.03,3.81-1.55,1.58-.55,2.75-1.04,3.51-1.49,.79-.48,1.19-1.09,1.19-1.84v-2.68c0-1.66-.36-2.79-1.07-3.39-.68-.59-1.65-.89-2.91-.89-1.99,0-3.39,.51-4.22,1.49,.55,.16,1.03,.48,1.43,.95,.39,.45,.59,1,.59,1.66,0,.71-.24,1.29-.71,1.72-.45,.4-1.01,.59-1.72,.59-.8,0-1.4-.24-1.78-.71-.4-.51-.59-1.13-.59-1.84,0-.67,.15-1.22,.48-1.66,.31-.48,.8-.95,1.49-1.43,.67-.48,1.52-.86,2.56-1.19,1.07-.31,2.23-.48,3.51-.48,2.21,0,3.88,.54,4.99,1.61,.71,.64,1.19,1.43,1.43,2.38,.24,.92,.36,2.13,.36,3.63v11.89c0,.71,.09,1.23,.3,1.55,.19,.28,.55,.42,1.07,.42,.31,0,.61-.07,.89-.24,.31-.15,.65-.37,1.01-.65l.48,.71c-.76,.59-1.4,1.01-1.9,1.25-.52,.24-1.17,.36-1.96,.36-1.4,0-2.36-.33-2.91-1.01-.52-.67-.77-1.61-.77-2.79-.88,1.43-1.87,2.42-2.97,2.97-1.11,.55-2.36,.83-3.75,.83Zm1.9-1.72c1.86,0,3.46-1.07,4.82-3.21v-8.38c-.28,.4-.65,.74-1.13,1.01-.45,.24-1.11,.58-2.02,1.01-1.11,.45-2.01,.88-2.68,1.31-.64,.4-1.22,.95-1.72,1.66-.48,.71-.71,1.64-.71,2.74,0,1.28,.31,2.24,.95,2.91,.62,.64,1.46,.95,2.5,.95Z"/><path class="cls-1" d="M160.16,166.57h6.36v.83h-6.36v16.53c0,1.28,.24,2.2,.71,2.79,.48,.56,1.14,.83,2.02,.83s1.66-.36,2.26-1.07c.62-.71,1.16-1.87,1.61-3.51l.83,.24c-.71,3.92-2.56,5.89-5.53,5.89-.95,0-1.75-.12-2.38-.36-.64-.21-1.19-.55-1.66-1.07-.64-.59-1.07-1.34-1.31-2.26-.24-.91-.36-2.14-.36-3.69v-14.33h-4.1v-.83h4.1v-6.54c1.58-.03,2.85-.24,3.81-.59v7.14Z"/><path class="cls-1" d="M174.16,155.87c.74,0,1.38,.28,1.9,.83,.55,.52,.83,1.16,.83,1.9s-.28,1.35-.83,1.9c-.52,.56-1.16,.83-1.9,.83s-1.41-.27-1.96-.83c-.52-.55-.77-1.19-.77-1.9s.25-1.38,.77-1.9c.55-.55,1.2-.83,1.96-.83Zm2.2,28.66c0,1.19,.24,2.01,.71,2.44,.48,.45,1.32,.65,2.56,.65v.89c-2.62-.12-4.34-.18-5.17-.18s-2.56,.06-5.17,.18v-.89c1.19,0,2.02-.21,2.5-.65,.48-.43,.71-1.25,.71-2.44v-13.38c0-1.31-.24-2.26-.71-2.85s-1.31-.89-2.5-.89v-.89c.91,.09,1.78,.12,2.62,.12,1.81,0,3.3-.19,4.46-.59v18.49Z"/><path class="cls-1" d="M193.1,165.91c2.88,0,5.23,.98,7.02,2.91,1.78,1.9,2.68,4.8,2.68,8.68s-.89,6.84-2.68,8.74c-1.78,1.9-4.13,2.85-7.02,2.85s-5.29-.95-7.08-2.85c-1.75-1.9-2.62-4.82-2.62-8.74s.86-6.78,2.62-8.68c1.78-1.93,4.13-2.91,7.08-2.91Zm0,.89c-1.71,0-3.08,.88-4.1,2.62-1,1.75-1.49,4.44-1.49,8.09s.49,6.41,1.49,8.15c1.03,1.75,2.39,2.62,4.1,2.62s3.05-.86,4.04-2.62c.98-1.74,1.49-4.46,1.49-8.15s-.51-6.33-1.49-8.09c-1-1.74-2.35-2.62-4.04-2.62Z"/><path class="cls-1" d="M221.21,165.91c1.98,0,3.48,.54,4.52,1.61,.55,.59,.92,1.34,1.13,2.2,.24,.83,.36,1.99,.36,3.45v11.36c0,1.19,.24,2.01,.71,2.44,.51,.45,1.37,.65,2.56,.65v.89c-2.62-.12-4.33-.18-5.11-.18s-2.41,.06-4.82,.18v-.89c1.07,0,1.8-.21,2.2-.65,.43-.43,.65-1.25,.65-2.44v-12.31c0-1.58-.24-2.79-.71-3.63-.45-.86-1.35-1.31-2.74-1.31-1.19,0-2.24,.36-3.15,1.07-.92,.68-1.64,1.61-2.14,2.79-.48,1.16-.71,2.47-.71,3.92v9.45c0,1.19,.19,2.01,.59,2.44,.43,.45,1.16,.65,2.2,.65v.89c-2.38-.12-3.97-.18-4.76-.18s-2.5,.06-5.11,.18v-.89c1.19,0,2.02-.21,2.5-.65,.48-.43,.71-1.25,.71-2.44v-13.38c0-1.31-.24-2.26-.71-2.85s-1.31-.89-2.5-.89v-.89c.91,.09,1.78,.12,2.62,.12,1.81,0,3.3-.19,4.46-.59v5.05c.71-1.81,1.69-3.12,2.97-3.92,1.26-.83,2.69-1.25,4.28-1.25Z"/></g><path class="cls-2" d="M53.09,27.61c.71,1.08,1.68,1.97,2.82,2.6,1.09,.59,2.35,.93,3.68,.93h38.72v-2.79h-25.68v-3.67h25.68V13.1c-5.17-.72-10.19-1.64-15.04-2.79l.81-3.58c6.13,1.43,12.57,2.54,19.24,3.29,2.34,.26,4.72,.47,7.13,.65V6.59c-.6-.2-1.17-.45-1.72-.75-1.67-.91-3.09-2.21-4.14-3.81l3.04-2.02c.72,1.08,1.69,1.97,2.83,2.6,1.09,.59,2.35,.93,3.68,.93h18.49c1.33,0,2.59-.34,3.68-.93,1.14-.63,2.12-1.52,2.83-2.6l3.04,2.02c-1.04,1.6-2.48,2.9-4.15,3.81-.54,.3-1.12,.55-1.71,.75v4.09c2.41-.17,4.8-.39,7.15-.65,6.66-.74,13.08-1.85,19.22-3.28l.81,3.58c-4.85,1.13-9.86,2.06-15.04,2.78v11.58h25.68v3.67h-25.68v2.79h38.72c1.33,0,2.59-.34,3.68-.93,1.14-.63,2.12-1.52,2.83-2.6l3.04,2.02c-1.04,1.59-2.48,2.9-4.14,3.81-1.62,.88-3.46,1.38-5.42,1.38h-7.03v5.01h22.31v3.68h-22.31v2.64h30.61c1.94,0,3.76-.49,5.36-1.35,1.66-.9,3.08-2.2,4.12-3.78l3.05,2.02c-1.37,2.08-3.25,3.8-5.43,4.99-2.12,1.15-4.54,1.81-7.09,1.81h-1.1v29.85h11.56v3.67H25.57v-3.67h11.56v-29.85h-1.1c-2.55,0-4.97-.66-7.09-1.81-2.19-1.19-4.06-2.91-5.43-4.99l3.05-2.02c1.04,1.58,2.46,2.88,4.12,3.78,1.6,.86,3.42,1.35,5.36,1.35h30.61v-2.64h-22.31v-3.68h22.31v-5.01h-7.03c-1.95,0-3.79-.5-5.41-1.38-1.67-.91-3.1-2.22-4.15-3.81l3.05-2.02Zm137.08,40.83h5.87v-6.21c0-.81-.33-1.55-.86-2.09-.53-.53-1.27-.87-2.07-.87s-1.55,.34-2.08,.87c-.53,.54-.86,1.28-.86,2.09v6.21Zm7.71,3.68h-11.36v-9.89c0-1.83,.74-3.49,1.93-4.69,1.2-1.2,2.84-1.94,4.66-1.94s3.46,.74,4.65,1.94c1.2,1.2,1.94,2.86,1.94,4.69v9.89h-1.83ZM114.11,10.9c3.06,.15,6.16,.23,9.3,.23s6.22-.08,9.26-.23v-3.68h-18.57v3.68Zm40.91,40.37h15.71v3.68h-15.71v-3.68Zm0-6.97h15.71v3.68h-15.71v-3.68Zm-78.96,6.97h15.71v3.68h-15.71v-3.68Zm0-6.97h15.71v3.68h-15.71v-3.68Zm34.77-6.67h25.14v3.68h-25.14v-3.68Zm0-9.28h25.14v3.68h-25.14v-3.68Zm42.36,51.36v-11.16c0-2.64,1.07-5.05,2.8-6.79,1.72-1.74,4.11-2.82,6.74-2.82s5.02,1.08,6.75,2.82c1.72,1.74,2.79,4.15,2.79,6.79v11.16h4.24V34.82h-28.04v44.87h4.71Zm15.43,0v-11.16c0-1.62-.66-3.11-1.73-4.19-1.06-1.07-2.54-1.74-4.16-1.74s-3.09,.67-4.16,1.74c-1.07,1.07-1.73,2.56-1.73,4.19v11.16h11.78Zm-117.95-11.26h5.87v-6.21c0-.81-.33-1.55-.86-2.09-.53-.53-1.27-.87-2.08-.87s-1.54,.34-2.07,.87c-.53,.54-.86,1.28-.86,2.09v6.21Zm7.7,3.68h-11.35v-9.89c0-1.83,.73-3.49,1.93-4.69,1.19-1.2,2.84-1.94,4.65-1.94s3.47,.74,4.66,1.94c1.2,1.2,1.93,2.86,1.93,4.69v9.89h-1.83Zm16.15,7.57v-11.16c0-2.64,1.07-5.05,2.8-6.79s4.12-2.82,6.74-2.82,5.02,1.08,6.75,2.82,2.8,4.15,2.8,6.79v11.16h4.71V34.82h-28.04v44.87h4.23Zm15.44,0v-11.16c0-1.62-.67-3.11-1.74-4.19-1.06-1.07-2.53-1.74-4.16-1.74s-3.09,.67-4.16,1.74-1.73,2.56-1.73,4.19v11.16h11.79ZM101.98,13.57V79.7h7.29v-18.79c0-3.92,1.59-7.48,4.15-10.06,2.55-2.57,6.09-4.18,9.98-4.18s7.42,1.61,9.98,4.18c2.56,2.58,4.15,6.14,4.15,10.06v18.79h7.29V13.58c-.31,.03-.62,.07-.94,.11-6.64,.73-13.48,1.12-20.46,1.12s-13.84-.39-20.49-1.13c-.32-.03-.63-.07-.95-.11Zm10.95,66.13h20.95v-18.79c0-2.9-1.18-5.54-3.08-7.46s-4.52-3.09-7.4-3.09-5.49,1.18-7.4,3.09c-1.9,1.91-3.08,4.55-3.08,7.46v18.79Zm67.24-29.85v29.85h25.85v-29.85h-25.85Zm-113.54,29.85v-29.85h-25.85v29.85h25.85"/></svg>